<svg width="30.000000" height="30.000000" viewBox="0 0 30 30" fill="none" xmlns="http://www.w3.org/2000/svg" xmlns:xlink="http://www.w3.org/1999/xlink">
	<desc>
			Created with Pixso.
	</desc>
	<defs>
		<clipPath id="clip10_12670">
			<rect id="hugeicons:bus-03" rx="-0.500000" width="29.000000" height="29.000000" transform="translate(0.500000 0.500000)" fill="white" fill-opacity="0"/>
		</clipPath>
	</defs>
	<rect id="hugeicons:bus-03" rx="-0.500000" width="29.000000" height="29.000000" transform="translate(0.500000 0.500000)" fill="#FFFFFF" fill-opacity="0"/>
	<g clip-path="url(#clip10_12670)">
		<path id="Vector" d="M7.5 12.5L7.5 6.25M13.75 12.5L13.75 6.25M20 12.5L20 6.87M6.27 21.25C4.49 21.25 3.6 21.25 3.05 20.7C2.5 20.15 2.5 19.26 2.5 17.5L2.5 10C2.5 8.23 2.5 7.34 3.05 6.79C3.6 6.25 4.49 6.25 6.27 6.25L15.12 6.25C19.46 6.25 21.63 6.25 23.3 7.13C24.52 7.78 25.54 8.75 26.24 9.94C27.2 11.56 27.29 13.72 27.47 18.04C27.52 19.2 27.54 19.79 27.31 20.23C27.14 20.55 26.89 20.82 26.57 21C26.14 21.25 25.55 21.25 24.38 21.25L23.75 21.25M11.25 21.25L18.75 21.25" stroke="#832335" stroke-opacity="1.000000" stroke-width="1.500000" stroke-linejoin="round" stroke-linecap="round"/>
		<path id="Vector" d="M10.52 23.01C10.99 22.54 11.25 21.91 11.25 21.24C11.25 20.58 10.99 19.95 10.52 19.48C10.05 19.01 9.41 18.74 8.75 18.74C8.09 18.74 7.45 19.01 6.98 19.48C6.51 19.95 6.25 20.58 6.25 21.24C6.25 21.91 6.51 22.54 6.98 23.01C7.45 23.48 8.09 23.74 8.75 23.74C9.41 23.74 10.05 23.48 10.52 23.01ZM23.02 23.01C23.49 22.54 23.75 21.91 23.75 21.24C23.75 20.58 23.49 19.95 23.02 19.48C22.55 19.01 21.91 18.74 21.25 18.74C20.59 18.74 19.95 19.01 19.48 19.48C19.01 19.95 18.75 20.58 18.75 21.24C18.75 21.91 19.01 22.54 19.48 23.01C19.95 23.48 20.59 23.74 21.25 23.74C21.91 23.74 22.55 23.48 23.02 23.01ZM2.49 12.5L19.2 12.5C19.98 12.5 20.25 12.96 20.85 13.67C21.54 14.35 22.01 14.82 22.65 14.92C23.55 15.05 26.88 14.99 26.88 14.99" stroke="#832335" stroke-opacity="1.000000" stroke-width="1.500000" stroke-linejoin="round" stroke-linecap="round"/>
	</g>
</svg>
