<svg width="15.184570" height="19.758301" viewBox="0 0 15.1846 19.7583" fill="none" xmlns="http://www.w3.org/2000/svg" xmlns:xlink="http://www.w3.org/1999/xlink">
	<desc>
			Created with Pixso.
	</desc>
	<defs/>
	<path id="Vector" d="M4.47 0.02C5.5 -0.13 6.37 0.5 6.78 1.32L7.79 3.34C8.35 4.46 8.03 5.77 7.18 6.6C6.68 7.08 6.18 7.64 5.88 8.13C5.86 8.17 5.86 8.21 5.87 8.25C6.14 9.71 7.13 11.16 8.01 12.19C8.06 12.24 8.12 12.28 8.18 12.29C8.24 12.31 8.31 12.31 8.37 12.29L10.36 11.67C10.9 11.5 11.47 11.51 12 11.69C12.53 11.87 12.99 12.22 13.31 12.68L14.75 14.78C15.14 15.34 15.33 16.11 15.03 16.85C14.77 17.52 14.25 18.47 13.31 19.1C12.34 19.76 11 20.01 9.25 19.41C7.3 18.74 5.46 17.06 3.93 14.91C2.39 12.75 1.12 10.05 0.35 7.24C-0.37 4.58 0.07 2.79 1.1 1.64C2.09 0.52 3.52 0.15 4.47 0.02ZM5.66 1.88C5.43 1.43 5.03 1.2 4.64 1.25C3.79 1.37 2.73 1.69 2.03 2.47C1.37 3.21 0.91 4.52 1.56 6.91C2.29 9.59 3.5 12.16 4.95 14.19C6.4 16.24 8.06 17.68 9.66 18.23C11.09 18.72 12 18.48 12.61 18.07C13.25 17.63 13.65 16.94 13.88 16.39C13.98 16.13 13.93 15.8 13.72 15.48L12.28 13.39C12.11 13.15 11.87 12.97 11.59 12.87C11.32 12.78 11.01 12.77 10.73 12.86L8.75 13.48C8.15 13.67 7.48 13.5 7.06 13.01C6.14 11.93 4.97 10.27 4.64 8.47C4.57 8.14 4.63 7.79 4.81 7.49C5.19 6.86 5.79 6.21 6.31 5.7C6.81 5.21 6.96 4.47 6.67 3.9L5.66 1.88Z" fill="#171616" fill-opacity="1.000000" fill-rule="nonzero"/>
</svg>
